<?xml version="1.0" standalone="no"?><!DOCTYPE svg PUBLIC "-//W3C//DTD SVG 1.1//EN" "http://www.w3.org/Graphics/SVG/1.1/DTD/svg11.dtd"><svg t="1557148176364" class="icon" style="" viewBox="0 0 1024 1024" version="1.1" xmlns="http://www.w3.org/2000/svg" p-id="6477" xmlns:xlink="http://www.w3.org/1999/xlink" width="200" height="200"><defs><style type="text/css"></style></defs><path d="M405.333333 128A277.333333 277.333333 0 0 1 682.666667 405.333333c0 68.693333-25.173333 131.84-66.56 180.48l11.52 11.52h33.706666l213.333334 213.333334-64 64-213.333334-213.333334v-33.706666l-11.52-11.52A278.016 278.016 0 0 1 405.333333 682.666667 277.333333 277.333333 0 0 1 128 405.333333 277.333333 277.333333 0 0 1 405.333333 128m0 85.333333C298.666667 213.333333 213.333333 298.666667 213.333333 405.333333S298.666667 597.333333 405.333333 597.333333 597.333333 512 597.333333 405.333333 512 213.333333 405.333333 213.333333z" fill="" p-id="6478"></path></svg>