<?xml version="1.0" standalone="no"?><!DOCTYPE svg PUBLIC "-//W3C//DTD SVG 1.1//EN" "http://www.w3.org/Graphics/SVG/1.1/DTD/svg11.dtd"><svg t="1557147068742" class="icon" style="" viewBox="0 0 1024 1024" version="1.1" xmlns="http://www.w3.org/2000/svg" p-id="790" xmlns:xlink="http://www.w3.org/1999/xlink" width="200" height="200"><defs><style type="text/css"></style></defs><path d="M960 780.571429H64c-5.028571 0-9.142857 4.114286-9.142857 9.142857v64c0 5.028571 4.114286 9.142857 9.142857 9.142857h896c5.028571 0 9.142857-4.114286 9.142857-9.142857v-64c0-5.028571-4.114286-9.142857-9.142857-9.142857zM116.228571 637.485714l45.371429 45.142857c3.542857 3.542857 9.371429 3.542857 12.914286 0l268.228571-267.314285 111.542857 111.2a36.697143 36.697143 0 0 0 51.657143 0l301.942857-300.8c3.542857-3.542857 3.542857-9.371429 0-12.914286l-45.371428-45.257143a9.177143 9.177143 0 0 0-12.914286 0l-269.371429 268.571429-111.657142-111.2a36.697143 36.697143 0 0 0-51.657143 0L116.228571 624.571429a9.074286 9.074286 0 0 0 0 12.914285z" p-id="791"></path></svg>